<?xml version="1.0" encoding="UTF-8"?>
<svg width="20px" height="13px" viewBox="0 0 20 13" version="1.1" xmlns="http://www.w3.org/2000/svg" xmlns:xlink="http://www.w3.org/1999/xlink">
    <!-- Generator: Sketch 49 (51002) - http://www.bohemiancoding.com/sketch -->
    <title>common_en</title>
    <desc>Created with Sketch.</desc>
    <defs>
        <rect id="path-1" x="0" y="0" width="20" height="13" rx="1"></rect>
    </defs>
    <g id="切图" stroke="none" stroke-width="1" fill="none" fill-rule="evenodd">
        <g id="Artboard" transform="translate(-405.000000, -206.000000)">
            <g id="common_en" transform="translate(405.000000, 204.000000)">
                <polygon id="Rectangle-Copy-4" points="0 0 20 0 20 17 0 17"></polygon>
                <g id="en" transform="translate(0.000000, 2.000000)">
                    <mask id="mask-2" fill="white">
                        <use xlink:href="#path-1"></use>
                    </mask>
                    <use id="Mask" fill="#303137" xlink:href="#path-1"></use>
                    <g id="USA" mask="url(#mask-2)">
                        <g transform="translate(-1.000000, -1.000000)">
                            <polygon id="Fill-2" fill="#FFFFFF" points="0.031897561 10.9641037 21.4012317 10.9641037 21.4012317 9.97491463 0.031897561 9.97491463"></polygon>
                            <polygon id="Fill-3" fill="#C22045" points="0.031897561 9.97493049 21.4012317 9.97493049 21.4012317 8.98572561 0.031897561 8.98572561"></polygon>
                            <polygon id="Fill-4" fill="#FFFFFF" points="0.031897561 12.9585098 21.4012317 12.9585098 21.4012317 11.9693207 0.031897561 11.9693207"></polygon>
                            <path d="M0.031897561,11.9693207 L21.4012317,11.9693207 L21.4012317,10.9800683 L0.031897561,10.9800683 L0.031897561,11.9693207 Z M0.031897561,14.9476988 L21.4012317,14.9476988 L21.4012317,12.9584939 L0.031897561,12.9584939 L0.031897561,14.9476988 Z" id="Fill-5" fill="#C22045"></path>
                            <polygon id="Fill-6" fill="#FFFFFF" points="0.031897561 8.98570976 21.4012317 8.98570976 21.4012317 7.99648902 0.031897561 7.99648902"></polygon>
                            <polygon id="Fill-7" fill="#C22045" points="0.031897561 6.00214634 21.4012317 6.00214634 21.4012317 5.01290976 0.031897561 5.01290976"></polygon>
                            <polygon id="Fill-8" fill="#FFFFFF" points="0.031897561 3.01856707 21.4012317 3.01856707 21.4012317 2.02937805 0.031897561 2.02937805"></polygon>
                            <path d="M0.031897561,2.02937805 L21.4012317,2.02937805 L21.4012317,0.0401414634 L0.031897561,0.0401414634 L0.031897561,2.02937805 Z M0.031897561,7.9805561 L21.4012317,7.9805561 L21.4012317,6.99133537 L0.031897561,6.99133537 L0.031897561,7.9805561 Z M0.031897561,4.00774024 L21.4012317,4.00774024 L21.4012317,3.01856707 L0.031897561,3.01856707 L0.031897561,4.00774024 Z" id="Fill-9" fill="#C22045"></path>
                            <path d="M0.031897561,6.99133537 L21.4012317,6.99133537 L21.4012317,6.00214634 L0.031897561,6.00214634 L0.031897561,6.99133537 Z M0.031897561,5.01290976 L21.4012317,5.01290976 L21.4012317,4.02372073 L0.031897561,4.02372073 L0.031897561,5.01290976 Z" id="Fill-10" fill="#FFFFFF"></path>
                            <polygon id="Fill-11" fill="#004981" points="1 7.95634756 9.72910366 7.95634756 9.72910366 1 1 1"></polygon>
                            <path d="M8.67607195,7.11665854 L8.73986707,7.2761939 L8.91536707,7.2761939 L8.77174878,7.38785122 L8.81962683,7.54743415 L8.67607195,7.4516939 L8.54843415,7.54743415 L8.59624878,7.38785122 L8.4526939,7.2761939 L8.62820976,7.2761939 L8.67607195,7.11665854 Z M8.67607195,5.69664634 L8.73986707,5.87214634 L8.91536707,5.87214634 L8.77174878,5.96790244 L8.81962683,6.12742195 L8.67607195,6.03168171 L8.54843415,6.12742195 L8.59624878,5.96790244 L8.4526939,5.87214634 L8.62820976,5.87214634 L8.67607195,5.69664634 Z M8.67607195,4.22881951 L8.73986707,4.38835488 L8.91536707,4.38835488 L8.77174878,4.48409512 L8.81962683,4.65959512 L8.67607195,4.54787439 L8.54843415,4.65959512 L8.59624878,4.48409512 L8.4526939,4.38835488 L8.62820976,4.38835488 L8.67607195,4.22881951 Z M8.67607195,2.77690976 L8.73986707,2.93644512 L8.91536707,2.93644512 L8.77174878,3.04816585 L8.81962683,3.20768537 L8.67607195,3.11194512 L8.54843415,3.20768537 L8.59624878,3.04816585 L8.4526939,2.93644512 L8.62820976,2.93644512 L8.67607195,2.77690976 Z M8.67607195,1.325 L8.73986707,1.5005 L8.91536707,1.5005 L8.77174878,1.5962561 L8.81962683,1.75577561 L8.67607195,1.66003537 L8.54843415,1.75577561 L8.59624878,1.5962561 L8.4526939,1.5005 L8.62820976,1.5005 L8.67607195,1.325 Z M2.83653537,6.36678049 L2.88441341,6.5263 L3.05991341,6.5263 L2.91631098,6.62204024 L2.98015366,6.7975561 L2.83653537,6.68583537 L2.69293293,6.7975561 L2.74079512,6.62204024 L2.61317317,6.5263 L2.7727561,6.5263 L2.83653537,6.36678049 Z M2.85251585,4.91487073 L2.9003939,5.07439024 L3.0758939,5.07439024 L2.93227561,5.18611098 L2.98015366,5.34564634 L2.85251585,5.24989024 L2.70891341,5.34564634 L2.75677561,5.18611098 L2.61317317,5.07439024 L2.78867317,5.07439024 L2.85251585,4.91487073 Z M2.85251585,3.44698049 L2.91631098,3.62248049 L3.09181098,3.62248049 L2.9482561,3.71822073 L2.99607073,3.87781951 L2.85251585,3.78207927 L2.72487805,3.87781951 L2.7727561,3.71822073 L2.6291378,3.62248049 L2.80465366,3.62248049 L2.85251585,3.44698049 Z M2.85251585,1.96317317 L2.91631098,2.1227561 L3.09181098,2.1227561 L2.9482561,2.23441341 L2.99607073,2.39394878 L2.85251585,2.29827195 L2.72487805,2.39394878 L2.7727561,2.23441341 L2.6291378,2.1227561 L2.80465366,2.1227561 L2.85251585,1.96317317 Z M4.12892561,6.38269756 L4.17674024,6.55819756 L4.35224024,6.55819756 L4.22460244,6.6539378 L4.27248049,6.81345732 L4.12892561,6.71778049 L3.98530732,6.81345732 L4.04910244,6.6539378 L3.90554756,6.55819756 L4.08104756,6.55819756 L4.12892561,6.38269756 Z M4.14484268,4.94675244 L4.19270488,5.1062878 L4.36822073,5.1062878 L4.22460244,5.20202805 L4.28844512,5.37752805 L4.14484268,5.26587073 L4.00122439,5.37752805 L4.04910244,5.20202805 L3.92146463,5.1062878 L4.09696463,5.1062878 L4.14484268,4.94675244 Z M4.16082317,3.47892561 L4.20868537,3.63846098 L4.38420122,3.63846098 L4.24058293,3.75011829 L4.28844512,3.90970122 L4.16082317,3.81396098 L4.01720488,3.90970122 L4.06508293,3.75011829 L3.92146463,3.63846098 L4.09696463,3.63846098 L4.16082317,3.47892561 Z M4.16082317,1.99513415 L4.20868537,2.15465366 L4.38420122,2.15465366 L4.24058293,2.2503939 L4.28844512,2.42590976 L4.16082317,2.31418902 L4.01720488,2.42590976 L4.06508293,2.2503939 L3.92146463,2.15465366 L4.09696463,2.15465366 L4.16082317,1.99513415 Z M5.42125244,6.3986622 L5.48509512,6.57417805 L5.66059512,6.57417805 L5.51699268,6.66991829 L5.56485488,6.8294378 L5.42125244,6.73369756 L5.29361463,6.8294378 L5.34147683,6.66991829 L5.19787439,6.57417805 L5.37337439,6.57417805 L5.42125244,6.3986622 Z M5.43721707,4.96273293 L5.5010122,5.12226829 L5.66059512,5.12226829 L5.53290976,5.21800854 L5.58077195,5.39350854 L5.43721707,5.2817878 L5.29361463,5.39350854 L5.3573939,5.21800854 L5.21385488,5.12226829 L5.38935488,5.12226829 L5.43721707,4.96273293 Z M5.45313415,3.49484268 L5.5010122,3.65444146 L5.6765122,3.65444146 L5.53290976,3.76609878 L5.59675244,3.92561829 L5.45313415,3.82994146 L5.30959512,3.92561829 L5.37337439,3.76609878 L5.2297561,3.65444146 L5.40527195,3.65444146 L5.45313415,3.49484268 Z M5.45313415,1.99513415 L5.5010122,2.17063415 L5.6765122,2.17063415 L5.53290976,2.26631098 L5.59675244,2.42590976 L5.45313415,2.33015366 L5.30959512,2.42590976 L5.37337439,2.26631098 L5.2297561,2.17063415 L5.40527195,2.17063415 L5.45313415,1.99513415 Z M6.7295439,6.46245732 L6.77742195,6.62204024 L6.95292195,6.62204024 L6.80930366,6.71778049 L6.85718171,6.89329634 L6.7295439,6.78157561 L6.58592561,6.89329634 L6.63380366,6.71778049 L6.49024878,6.62204024 L6.66576463,6.62204024 L6.7295439,6.46245732 Z M6.7295439,5.01061098 L6.79338659,5.17013049 L6.96890244,5.17013049 L6.82528415,5.2817878 L6.8731622,5.44138659 L6.7295439,5.34564634 L6.6019061,5.44138659 L6.64978415,5.2817878 L6.50616585,5.17013049 L6.68166585,5.17013049 L6.7295439,5.01061098 Z M6.74552439,3.54272073 L6.80930366,3.71822073 L6.96890244,3.71822073 L6.84126463,3.81396098 L6.88907927,3.97349634 L6.74552439,3.87781951 L6.6019061,3.97349634 L6.66576463,3.81396098 L6.52214634,3.71822073 L6.69764634,3.71822073 L6.74552439,3.54272073 Z M6.74552439,2.05891341 L6.80930366,2.21844878 L6.96890244,2.21844878 L6.84126463,2.31418902 L6.88907927,2.48968902 L6.74552439,2.37803171 L6.6019061,2.48968902 L6.66576463,2.31418902 L6.52214634,2.21844878 L6.69764634,2.21844878 L6.74552439,2.05891341 Z M8.02193415,6.46245732 L8.06979634,6.62204024 L8.24524878,6.62204024 L8.1016939,6.71778049 L8.16547317,6.89329634 L8.02193415,6.78157561 L7.87831585,6.89329634 L7.92617805,6.71778049 L7.7985561,6.62204024 L7.9740561,6.62204024 L8.02193415,6.46245732 Z M8.03783537,5.01061098 L8.08571341,5.17013049 L8.26121341,5.17013049 L8.11761098,5.2817878 L8.18145366,5.44138659 L8.03783537,5.34564634 L7.89429634,5.44138659 L7.94209512,5.2817878 L7.7985561,5.17013049 L7.9740561,5.17013049 L8.03783537,5.01061098 Z M8.05381585,3.54272073 L8.1016939,3.71822073 L8.2771939,3.71822073 L8.13359146,3.81396098 L8.18145366,3.97349634 L8.05381585,3.87781951 L7.91021341,3.97349634 L7.95807561,3.81396098 L7.81447317,3.71822073 L7.98997317,3.71822073 L8.05381585,3.54272073 Z M8.05381585,2.05891341 L8.1016939,2.21844878 L8.2771939,2.21844878 L8.13359146,2.31418902 L8.18145366,2.48968902 L8.05381585,2.37803171 L7.91021341,2.48968902 L7.95807561,2.31418902 L7.81447317,2.21844878 L7.98997317,2.21844878 L8.05381585,2.05891341 Z M2.19837805,7.11665854 L2.24624024,7.2761939 L2.42174024,7.2761939 L2.2781378,7.38785122 L2.34191707,7.54743415 L2.19837805,7.4516939 L2.05475976,7.54743415 L2.11860244,7.38785122 L1.975,7.2761939 L2.1505,7.2761939 L2.19837805,7.11665854 Z M2.19837805,5.69664634 L2.24624024,5.87214634 L2.42174024,5.87214634 L2.2781378,5.96790244 L2.34191707,6.12742195 L2.19837805,6.03168171 L2.05475976,6.12742195 L2.11860244,5.96790244 L1.975,5.87214634 L2.1505,5.87214634 L2.19837805,5.69664634 Z M2.19837805,4.22881951 L2.24624024,4.38835488 L2.42174024,4.38835488 L2.2781378,4.48409512 L2.34191707,4.65959512 L2.19837805,4.54787439 L2.05475976,4.65959512 L2.11860244,4.48409512 L1.975,4.38835488 L2.1505,4.38835488 L2.19837805,4.22881951 Z M2.19837805,2.77690976 L2.24624024,2.93644512 L2.42174024,2.93644512 L2.2781378,3.04816585 L2.34191707,3.20768537 L2.19837805,3.11194512 L2.05475976,3.20768537 L2.11860244,3.04816585 L1.975,2.93644512 L2.1505,2.93644512 L2.19837805,2.77690976 Z M2.19837805,1.325 L2.24624024,1.5005 L2.42174024,1.5005 L2.2781378,1.5962561 L2.34191707,1.75577561 L2.19837805,1.66003537 L2.05475976,1.75577561 L2.11860244,1.5962561 L1.975,1.5005 L2.1505,1.5005 L2.19837805,1.325 Z M3.49068902,7.11665854 L3.55453171,7.2761939 L3.71406707,7.2761939 L3.58642927,7.38785122 L3.63430732,7.54743415 L3.49068902,7.4516939 L3.34708659,7.54743415 L3.41092927,7.38785122 L3.26731098,7.2761939 L3.44282683,7.2761939 L3.49068902,7.11665854 Z M3.49068902,5.69664634 L3.55453171,5.87214634 L3.71406707,5.87214634 L3.58642927,5.96790244 L3.63430732,6.12742195 L3.49068902,6.03168171 L3.34708659,6.12742195 L3.41092927,5.96790244 L3.26731098,5.87214634 L3.44282683,5.87214634 L3.49068902,5.69664634 Z M3.49068902,4.22881951 L3.55453171,4.38835488 L3.71406707,4.38835488 L3.58642927,4.48409512 L3.63430732,4.65959512 L3.49068902,4.54787439 L3.34708659,4.65959512 L3.41092927,4.48409512 L3.26731098,4.38835488 L3.44282683,4.38835488 L3.49068902,4.22881951 Z M3.49068902,2.77690976 L3.55453171,2.93644512 L3.71406707,2.93644512 L3.58642927,3.04816585 L3.63430732,3.20768537 L3.49068902,3.11194512 L3.34708659,3.20768537 L3.41092927,3.04816585 L3.26731098,2.93644512 L3.44282683,2.93644512 L3.49068902,2.77690976 Z M3.49068902,1.325 L3.55453171,1.5005 L3.71406707,1.5005 L3.58642927,1.5962561 L3.63430732,1.75577561 L3.49068902,1.66003537 L3.34708659,1.75577561 L3.41092927,1.5962561 L3.26731098,1.5005 L3.44282683,1.5005 L3.49068902,1.325 Z M4.79899634,7.11665854 L4.84685854,7.2761939 L5.02235854,7.2761939 L4.8787561,7.38785122 L4.92661829,7.54743415 L4.79899634,7.4516939 L4.65544146,7.54743415 L4.7032561,7.38785122 L4.55970122,7.2761939 L4.73520122,7.2761939 L4.79899634,7.11665854 Z M4.79899634,5.69664634 L4.84685854,5.87214634 L5.02235854,5.87214634 L4.8787561,5.96790244 L4.92661829,6.12742195 L4.79899634,6.03168171 L4.65544146,6.12742195 L4.7032561,5.96790244 L4.55970122,5.87214634 L4.73520122,5.87214634 L4.79899634,5.69664634 Z M4.79899634,4.22881951 L4.84685854,4.38835488 L5.02235854,4.38835488 L4.8787561,4.48409512 L4.92661829,4.65959512 L4.79899634,4.54787439 L4.65544146,4.65959512 L4.7032561,4.48409512 L4.55970122,4.38835488 L4.73520122,4.38835488 L4.79899634,4.22881951 Z M4.79899634,2.77690976 L4.84685854,2.93644512 L5.02235854,2.93644512 L4.8787561,3.04816585 L4.92661829,3.20768537 L4.79899634,3.11194512 L4.65544146,3.20768537 L4.7032561,3.04816585 L4.55970122,2.93644512 L4.73520122,2.93644512 L4.79899634,2.77690976 Z M4.79899634,1.325 L4.84685854,1.5005 L5.02235854,1.5005 L4.8787561,1.5962561 L4.92661829,1.75577561 L4.79899634,1.66003537 L4.65544146,1.75577561 L4.7032561,1.5962561 L4.55970122,1.5005 L4.73520122,1.5005 L4.79899634,1.325 Z M6.09137073,7.11665854 L6.13924878,7.2761939 L6.31474878,7.2761939 L6.17113049,7.38785122 L6.23492561,7.54743415 L6.09137073,7.4516939 L5.94776829,7.54743415 L5.99563049,7.38785122 L5.86799268,7.2761939 L6.02752805,7.2761939 L6.09137073,7.11665854 Z M6.09137073,5.69664634 L6.13924878,5.87214634 L6.31474878,5.87214634 L6.17113049,5.96790244 L6.23492561,6.12742195 L6.09137073,6.03168171 L5.94776829,6.12742195 L5.99563049,5.96790244 L5.86799268,5.87214634 L6.02752805,5.87214634 L6.09137073,5.69664634 Z M6.09137073,4.22881951 L6.13924878,4.38835488 L6.31474878,4.38835488 L6.17113049,4.48409512 L6.23492561,4.65959512 L6.09137073,4.54787439 L5.94776829,4.65959512 L5.99563049,4.48409512 L5.86799268,4.38835488 L6.02752805,4.38835488 L6.09137073,4.22881951 Z M6.09137073,2.77690976 L6.13924878,2.93644512 L6.31474878,2.93644512 L6.17113049,3.04816585 L6.23492561,3.20768537 L6.09137073,3.11194512 L5.94776829,3.20768537 L5.99563049,3.04816585 L5.86799268,2.93644512 L6.02752805,2.93644512 L6.09137073,2.77690976 Z M6.09137073,1.325 L6.13924878,1.5005 L6.31474878,1.5005 L6.17113049,1.5962561 L6.23492561,1.75577561 L6.09137073,1.66003537 L5.94776829,1.75577561 L5.99563049,1.5962561 L5.86799268,1.5005 L6.02752805,1.5005 L6.09137073,1.325 Z M7.38369756,7.11665854 L7.43155976,7.2761939 L7.60707561,7.2761939 L7.46345732,7.38785122 L7.5273,7.54743415 L7.38369756,7.4516939 L7.24007927,7.54743415 L7.30392195,7.38785122 L7.16031951,7.2761939 L7.33581951,7.2761939 L7.38369756,7.11665854 Z M7.38369756,5.69664634 L7.43155976,5.87214634 L7.60707561,5.87214634 L7.46345732,5.96790244 L7.5273,6.12742195 L7.38369756,6.03168171 L7.24007927,6.12742195 L7.30392195,5.96790244 L7.16031951,5.87214634 L7.33581951,5.87214634 L7.38369756,5.69664634 Z M7.38369756,4.22881951 L7.43155976,4.38835488 L7.60707561,4.38835488 L7.46345732,4.48409512 L7.5273,4.65959512 L7.38369756,4.54787439 L7.24007927,4.65959512 L7.30392195,4.48409512 L7.16031951,4.38835488 L7.33581951,4.38835488 L7.38369756,4.22881951 Z M7.38369756,2.77690976 L7.43155976,2.93644512 L7.60707561,2.93644512 L7.46345732,3.04816585 L7.5273,3.20768537 L7.38369756,3.11194512 L7.24007927,3.20768537 L7.30392195,3.04816585 L7.16031951,2.93644512 L7.33581951,2.93644512 L7.38369756,2.77690976 Z M7.38369756,1.325 L7.43155976,1.5005 L7.60707561,1.5005 L7.46345732,1.5962561 L7.5273,1.75577561 L7.38369756,1.66003537 L7.24007927,1.75577561 L7.30392195,1.5962561 L7.16031951,1.5005 L7.33581951,1.5005 L7.38369756,1.325 Z" id="Fill-12" fill="#FFFFFF"></path>
                        </g>
                    </g>
                </g>
            </g>
        </g>
    </g>
</svg>