<?xml version="1.0" encoding="UTF-8"?>
<svg width="79px" height="63px" viewBox="0 0 79 63" version="1.1" xmlns="http://www.w3.org/2000/svg" xmlns:xlink="http://www.w3.org/1999/xlink">
    <!-- Generator: Sketch 50 (54983) - http://www.bohemiancoding.com/sketch -->
    <title>appraisement</title>
    <desc>Created with Sketch.</desc>
    <defs></defs>
    <g id="1.2增强版" stroke="none" stroke-width="1" fill="none" fill-rule="evenodd">
        <g id="appraisement" transform="translate(2.000000, 0.000000)">
            <g id="Group-25" transform="translate(0.000000, 42.000000)">
                <path d="M65.2931347,19.4137306 L9.70686532,19.4137306 C4.34591164,19.4137306 9.10151229e-13,15.067819 9.09494702e-13,9.70686532 L9.09494702e-13,9.70686532 C9.08838174e-13,4.34591164 4.34591164,9.84791216e-16 9.70686532,0 L65.2931347,-1.77635684e-15 C70.6540884,-2.76114806e-15 75,4.34591164 75,9.70686532 L75,9.70686532 C75,15.067819 70.6540884,19.4137306 65.2931347,19.4137306 Z" id="Stroke-1" stroke="#303137" stroke-width="2.75" stroke-linecap="round" stroke-linejoin="round"></path>
                <path d="M13.2882267,13.5764534 C10.9297692,13.5764534 9,11.6466842 9,9.2882267 C9,6.92976921 10.9297692,5 13.2882267,5 C15.6466842,5 17.5764534,6.92976921 17.5764534,9.2882267 C17.5764534,11.6466842 15.6466842,13.5764534 13.2882267,13.5764534 Z" id="Stroke-3" stroke="#303137" stroke-width="2" stroke-linecap="round" stroke-linejoin="round"></path>
                <path d="M62.2882267,13.5764534 C59.9297692,13.5764534 58,11.6466842 58,9.2882267 C58,6.92976921 59.9297692,5 62.2882267,5 C64.6466842,5 66.5764534,6.92976921 66.5764534,9.2882267 C66.5764534,11.6466842 64.6466842,13.5764534 62.2882267,13.5764534 Z" id="Stroke-5" stroke="#303137" stroke-width="2" stroke-linecap="round" stroke-linejoin="round"></path>
                <path d="M30.0810985,9.54054923 C30.0810985,10.9435291 28.9435291,12.0810985 27.5405492,12.0810985 C26.1375694,12.0810985 25,10.9435291 25,9.54054923 C25,8.13756938 26.1375694,7 27.5405492,7 C28.9435291,7 30.0810985,8.13756938 30.0810985,9.54054923" id="Fill-7" fill="#303137"></path>
                <path d="M40.0810985,9.54054923 C40.0810985,10.9435291 38.9435291,12.0810985 37.5405492,12.0810985 C36.1375694,12.0810985 35,10.9435291 35,9.54054923 C35,8.13756938 36.1375694,7 37.5405492,7 C38.9435291,7 40.0810985,8.13756938 40.0810985,9.54054923" id="Fill-9" fill="#303137"></path>
                <path d="M50.0810985,9.54054923 C50.0810985,10.9435291 48.9435291,12.0810985 47.5405492,12.0810985 C46.1368975,12.0810985 45,10.9435291 45,9.54054923 C45,8.13756938 46.1368975,7 47.5405492,7 C48.9435291,7 50.0810985,8.13756938 50.0810985,9.54054923" id="Fill-11" fill="#303137"></path>
            </g>
            <path d="M47.1870436,17.5389583 C48.0387342,16.337057 48.5466314,14.8326176 48.5466314,13.1979951 C48.5466314,9.26499985 45.6129287,6.07643173 41.9953066,6.07643173 C41.7056034,6.07643173 41.3535591,6.07643173 40.9510917,6.07643173 L40.9510917,0.569321682 C40.9510917,0.255782205 40.6943927,0 40.3817701,0 L38.4812808,8.05765513e-08 C38.1677413,8.05765513e-08 37.9119591,0.256699086 37.9119591,0.569321763 L37.9119591,6.07643181 L34.8737432,6.07643181 L34.8737432,0.569321763 C34.8737432,0.255782286 34.6170442,8.05765513e-08 34.3044215,8.05765513e-08 L32.4057658,8.05765513e-08 C32.0922263,8.05765513e-08 31.8364441,0.256699086 31.8364441,0.569321763 L31.8364441,6.07643181 L25.5693217,6.07643181 C25.2548654,6.07643181 25,6.33129721 25,6.64575349 L25,8.56366163 C25,8.85703191 25.2191109,9.11098051 25.5115644,9.13756723 C27.6513338,9.33375856 28.7982282,10.7694393 28.7982282,12.5333281 L28.7982282,24.3075606 C28.7982282,25.8945104 27.9795418,27.154169 26.1899831,27.326524 C25.9360345,27.3512771 25.7251746,27.5318832 25.6775019,27.7830815 L25.3144562,29.7193253 C25.2493647,30.0649521 25.5152314,30.3849091 25.8672758,30.3849091 L31.8346106,30.3849091 L31.8346106,35.8920192 C31.8346106,36.2055586 32.0913096,36.4613409 32.4039323,36.4613409 L34.302588,36.4613409 C34.6161275,36.4613409 34.8719097,36.2046418 34.8719097,35.8920192 L34.8719097,30.3849091 L37.9101256,30.3849091 L37.9101256,35.8920192 C37.9101256,36.2055586 38.1668246,36.4613409 38.4794473,36.4613409 L40.378103,36.4613409 C40.6916425,36.4613409 40.9474247,36.2046418 40.9474247,35.8920192 L40.9474247,30.3849091 C42.0237269,30.3849091 42.9175894,30.3849091 43.5107475,30.3849091 C47.1292864,30.3849091 50.0620723,27.2394297 50.0620723,23.3586911 C50.0657394,20.9365528 48.9243457,18.8022841 47.1870436,17.5389583 Z M34.8728265,10.6337556 C34.8728265,10.6337556 37.7946111,10.6337556 39.5254956,10.6337556 C41.2563802,10.6337556 42.6590568,12.0364322 42.6590568,13.7673168 C42.6590568,15.4982013 41.2563802,16.9008779 39.5254956,16.9008779 C37.7946111,16.9008779 34.8728265,16.9008779 34.8728265,16.9008779 L34.8728265,10.6337556 Z M41.0446036,26.0164424 C39.313719,26.0164424 34.8728265,26.0164424 34.8728265,26.0164424 L34.8728265,19.74932 C34.8728265,19.74932 39.313719,19.74932 41.0446036,19.74932 C42.7754881,19.74932 44.1781647,21.1519966 44.1781647,22.8828812 C44.1781647,24.6137658 42.7754881,26.0164424 41.0446036,26.0164424 Z" id="Shape" fill="#303137" fill-rule="nonzero"></path>
        </g>
    </g>
</svg>