<?xml version="1.0" encoding="UTF-8"?>
<svg width="66px" height="48px" viewBox="0 0 66 48" version="1.1" xmlns="http://www.w3.org/2000/svg" xmlns:xlink="http://www.w3.org/1999/xlink">
    <!-- Generator: Sketch 50 (54983) - http://www.bohemiancoding.com/sketch -->
    <title>power</title>
    <desc>Created with Sketch.</desc>
    <defs></defs>
    <g id="1.2增强版" stroke="none" stroke-width="1" fill="none" fill-rule="evenodd">
        <g id="power" fill="#333333">
            <path d="M62.93712,43.4944264 L62.93712,4.85521983 C62.93712,4.44781488 62.76792,4.07690579 62.49552,3.80675702 C62.22352,3.53660826 61.84912,3.36920331 61.43872,3.36920331 L4.49552,3.36920331 C4.08472,3.36920331 3.71072,3.53660826 3.43832,3.80675702 C3.16592,4.07690579 2.99672,4.44781488 2.99672,4.85521983 L2.99672,43.4944264 C2.99672,43.9014347 3.16592,44.2727405 3.43832,44.5428893 C3.71072,44.8126413 4.08472,44.980443 4.49552,44.980443 L61.43872,44.980443 C61.84912,44.980443 62.22352,44.8126413 62.49552,44.5428893 C62.76792,44.2727405 62.93712,43.9014347 62.93712,43.4944264 M65.93392,4.85521983 L65.93392,43.4944264 C65.93392,44.722195 65.42872,45.8369058 64.61472,46.6441785 C63.80072,47.4518479 62.67672,47.952476 61.43872,47.952476 L4.49552,47.952476 C3.25752,47.952476 2.13312,47.4518479 1.31912,46.6441785 C0.50552,45.8369058 -8e-05,44.722195 -8e-05,43.4944264 L-8e-05,4.85521983 C-8e-05,3.62745124 0.50552,2.5127405 1.31912,1.70507107 C2.13312,0.898195041 3.25752,0.396773554 4.49552,0.396773554 L61.43872,0.396773554 C62.67672,0.396773554 63.80072,0.898195041 64.61472,1.70507107 C65.42872,2.5127405 65.93392,3.62745124 65.93392,4.85521983" id="Fill-1"></path>
            <path d="M52.159,34.1577917 C54.735,31.6034777 56.3286,28.0732959 56.3286,24.1749818 C56.3286,20.2762711 54.735,16.746486 52.159,14.1917752 C49.5834,11.6370645 46.0242,10.0566347 42.093,10.0566347 C38.1618,10.0566347 34.6026,11.6370645 32.0266,14.1917752 C29.4506,16.746486 27.8574,20.2762711 27.8574,24.1749818 C27.8574,28.0732959 29.4506,31.6034777 32.0266,34.1577917 C34.6026,36.7125025 38.1618,38.2929322 42.093,38.2929322 C46.0242,38.2929322 49.5834,36.7125025 52.159,34.1577917 M59.3258,24.1749818 C59.3258,28.8936595 57.397,33.1664529 54.2782,36.2594777 C51.1594,39.3521058 46.8514,41.2649653 42.093,41.2649653 C37.3342,41.2649653 33.0262,39.3521058 29.9074,36.2594777 C26.789,33.1664529 24.8602,28.8936595 24.8602,24.1749818 C24.8602,19.4555107 26.789,15.183114 29.9074,12.0900893 C33.0262,8.99746116 37.3342,7.08460165 42.093,7.08460165 C46.8514,7.08460165 51.1594,8.99746116 54.2782,12.0900893 C57.397,15.183114 59.3258,19.4555107 59.3258,24.1749818" id="Fill-4"></path>
            <path d="M44.1168,26.1820562 C44.6348,25.6683372 44.9552,24.9586512 44.9552,24.1747835 C44.9552,23.3909157 44.6348,22.6812298 44.1168,22.1675107 C43.5992,21.6541884 42.8832,21.3360397 42.0928,21.3360397 C41.3024,21.3360397 40.5868,21.6541884 40.0688,22.1675107 C39.5512,22.6812298 39.2308,23.3909157 39.2308,24.1747835 C39.2308,24.9586512 39.5512,25.6683372 40.0688,26.1820562 C40.5868,26.6957752 41.3024,27.0135273 42.0928,27.0135273 C42.8832,27.0135273 43.5992,26.6957752 44.1168,26.1820562 M47.952,24.1747835 C47.952,25.7790149 47.296,27.2317091 46.236,28.2833455 C45.1752,29.3349818 43.7104,29.9855603 42.0928,29.9855603 C40.4752,29.9855603 39.01,29.3349818 37.95,28.2833455 C36.8896,27.2317091 36.2336,25.7790149 36.2336,24.1747835 C36.2336,22.5705521 36.8896,21.1174612 37.95,20.0662215 C39.01,19.0145851 40.4752,18.3640066 42.0928,18.3640066 C43.7104,18.3640066 45.1752,19.0145851 46.236,20.0662215 C47.296,21.1174612 47.952,22.5705521 47.952,24.1747835" id="Fill-6"></path>
            <path d="M59.94024,40.5223537 C59.94024,41.3427174 59.26904,42.0083702 58.44184,42.0083702 C57.61424,42.0083702 56.94304,41.3427174 56.94304,40.5223537 C56.94304,39.7015934 57.61424,39.0363372 58.44184,39.0363372 C59.26904,39.0363372 59.94024,39.7015934 59.94024,40.5223537" id="Fill-8"></path>
            <path d="M59.94024,7.82760992 C59.94024,8.64837025 59.26904,9.31362645 58.44184,9.31362645 C57.61424,9.31362645 56.94304,8.64837025 56.94304,7.82760992 C56.94304,7.00684959 57.61424,6.34159339 58.44184,6.34159339 C59.26904,6.34159339 59.94024,7.00684959 59.94024,7.82760992" id="Fill-10"></path>
            <path d="M8.991,40.5223537 C8.991,41.3427174 8.3198,42.0083702 7.4926,42.0083702 C6.665,42.0083702 5.9942,41.3427174 5.9942,40.5223537 C5.9942,39.7015934 6.665,39.0363372 7.4926,39.0363372 C8.3198,39.0363372 8.991,39.7015934 8.991,40.5223537" id="Fill-12"></path>
            <path d="M8.991,7.82760992 C8.991,8.64837025 8.3198,9.31362645 7.4926,9.31362645 C6.665,9.31362645 5.9942,8.64837025 5.9942,7.82760992 C5.9942,7.00684959 6.665,6.34159339 7.4926,6.34159339 C8.3198,6.34159339 8.991,7.00684959 8.991,7.82760992" id="Fill-14"></path>
            <polygon id="Fill-16" points="33.43516 20.7906645 28.21756 15.8879207 30.27756 13.7398215 35.49556 18.6425653"></polygon>
        </g>
    </g>
</svg>