<?xml version="1.0" encoding="UTF-8"?>
<svg width="64px" height="65px" viewBox="0 0 64 65" version="1.1" xmlns="http://www.w3.org/2000/svg" xmlns:xlink="http://www.w3.org/1999/xlink">
    <!-- Generator: Sketch 50 (54983) - http://www.bohemiancoding.com/sketch -->
    <title>administrative fee</title>
    <desc>Created with Sketch.</desc>
    <defs></defs>
    <g id="1.2增强版" stroke="none" stroke-width="1" fill="none" fill-rule="evenodd">
        <g id="administrative-fee" fill="#303137">
            <path d="M60.5550471,49.6297987 L58.3256459,49.6297987 L58.3256459,40.5646268 C58.3256459,37.1571363 55.5569325,34.3880153 52.149442,34.3880153 C48.7419516,34.3880153 45.9732382,37.1571363 45.9732382,40.5646268 L45.9732382,49.6297987 L3.08304713,49.6297987 L3.08304713,22.8561936 L60.5550471,22.8561936 L60.5550471,49.6297987 Z M49.0525758,49.6297987 L49.0525758,40.5646268 C49.0525758,39.4321936 49.5641682,37.3634038 52.149442,37.3634038 C54.7351236,37.3634038 55.2438624,39.4321936 55.2438624,40.5646268 L55.2438624,49.6297987 L49.0525758,49.6297987 Z M31.8190471,60.9520917 C25.148372,60.9520917 18.0541554,57.1687541 13.7514803,52.7217732 L50.1055185,52.7217732 C45.8028433,57.1589707 38.4893146,60.9520917 31.8190471,60.9520917 Z M14.3136204,10.7019006 C14.3136204,9.56946752 14.8223592,7.31683057 17.4072255,7.31683057 C19.9916841,7.31683057 20.504907,9.56946752 20.504907,10.7019006 L20.504907,19.7707414 L14.3136204,19.7707414 L14.3136204,10.7019006 Z M28.7234038,6.5838879 C28.7234038,5.45186242 29.3809325,3.12544204 31.8190471,3.12544204 C34.2563465,3.12544204 34.9146904,5.45186242 34.9146904,6.5838879 L34.9146904,19.7707414 L28.7234038,19.7707414 L28.7234038,6.5838879 Z M43.1441936,8.64289427 C43.1441936,7.51086879 43.5958624,5.30633376 46.2304611,5.30633376 C48.8646522,5.30633376 49.3354803,7.51086879 49.3354803,8.64289427 L49.3354803,19.7707414 L43.1441936,19.7707414 L43.1441936,8.64289427 Z M52.4070726,19.7809325 L52.4070726,8.64289427 C52.4070726,5.23581146 49.6379516,2.46669045 46.2304611,2.46669045 C42.8229707,2.46669045 40.0542573,5.23581146 40.0542573,8.64289427 L40.0542573,19.7707414 L37.995251,19.7707414 L37.995251,6.5838879 C37.995251,3.1768051 35.2261299,0.407684076 31.8190471,0.407684076 C28.411149,0.407684076 25.6424357,3.1768051 25.6424357,6.5838879 L25.6424357,19.7707414 L23.5838369,19.7707414 L23.5838369,10.7019006 C23.5838369,7.29441019 20.8147159,4.52569682 17.4072255,4.52569682 C13.999735,4.52569682 11.230614,7.29441019 11.230614,10.7019006 L11.230614,19.7707414 L4.07643312e-05,19.7707414 L4.07643312e-05,52.7119898 L9.42923822,52.7119898 C14.4942064,59.5775185 22.6364739,64.0350981 31.8190471,64.0350981 C41.0012127,64.0350981 49.1438879,59.5775185 54.2084484,52.7119898 L63.6376459,52.7119898 L63.6376459,19.7707414 L52.4070726,19.7707414 L52.4070726,19.7809325 Z" id="Fill-1"></path>
            <polygon id="Fill-4" points="11.3235159 37.2753121 36.0291465 37.2753121 36.0291465 34.1927134 11.3235159 34.1927134"></polygon>
        </g>
    </g>
</svg>