<?xml version="1.0" encoding="utf-8"?>
<!-- Generator: Adobe Illustrator 16.0.0, SVG Export Plug-In . SVG Version: 6.00 Build 0)  -->
<!DOCTYPE svg PUBLIC "-//W3C//DTD SVG 1.1//EN" "http://www.w3.org/Graphics/SVG/1.1/DTD/svg11.dtd">
<svg version="1.1" id="圖層_1" xmlns="http://www.w3.org/2000/svg" xmlns:xlink="http://www.w3.org/1999/xlink" x="0px" y="0px"
	 width="301.333px" height="35.667px" viewBox="0 0 301.333 35.667" enable-background="new 0 0 301.333 35.667"
	 xml:space="preserve">
<path fill="#FFFFFF" d="M62.698,9.175c-0.321-0.221-0.622-0.38-0.901-0.51c-0.267-0.121-0.5-0.211-0.67-0.285
	c-0.199-0.091-0.4,0.034-0.391,0.247c0.272,4.996-1.478,8.063-4.736,10.674c-2.723,2.182-6.439,4.109-12.596,5.061h-0.029
	c-0.758,0.11-1.556,0.221-2.396,0.299c-2.524,0.258-5.067,0.096-7.035-0.299c-5.906-1.207-9.586-4.662-6.417-7.353
	c0.263-0.229-0.04-0.612-0.347-0.401c-3.989,2.794-2.21,4.939-0.254,6.596c0.515,0.438,1.804,1.167,1.804,1.167
	c6.04,3.07,18.166,2.679,27.202,0.158c0.205-0.058,0.399-0.112,0.6-0.16v-0.008C66.165,21.522,72.691,15.902,62.698,9.175"/>
<path fill="#FFFFFF" d="M32.074,1.864c9.017,2.424,13.57,4.747,16.507,7.459c2.768,2.541,4.241,5.353,1.867,8.883
	c-2.925,4.336-15.85,5.868-20.598,1.758c-0.263-0.229-0.619,0.104-0.386,0.364c2.821,3.034,7.108,3.292,10.91,3.284
	c20.554-0.049,26.493-24.318-6.121-22.516c-1.043,0.047-1.696,0.19-2.142,0.265C31.792,1.416,31.769,1.78,32.074,1.864"/>
<path fill="#FFFFFF" d="M5.568,10.739C14.31,8.09,20.661,7.288,26.943,7.386c5.896,0.088,11.784,0.88,16.926,3.757
	c5.741,3.2,2.752,9.449-7.203,9.422c-0.362,0-0.375,0.498-0.016,0.529c6.583,0.299,9.204-1.375,11.148-3.063
	c5.26-4.56-2.532-10.563-12.252-13.41C25.583,1.697,12.605,1.674,5.86,9.296C5.644,9.539,5.511,9.76,5.407,9.953
	c-0.077,0.185-0.121,0.33-0.166,0.442C5.145,10.63,5.33,10.809,5.568,10.739"/>
<path fill="#FFFFFF" d="M12.703,15.672c3.054-2.448,7.363-4.576,15.015-5.354c9.823-0.995,17.724,4.018,13.444,7.649
	c-0.259,0.23,0.059,0.606,0.344,0.402c4.001-2.797,2.22-4.936,0.259-6.591c-5.057-4.292-18.937-4.136-29.006-1.328
	c-9.256,2.58-15.952,7.692-8.672,13.918c0.552,0.473,1.191,0.951,1.911,1.438c0.313,0.219,0.62,0.415,0.879,0.55
	c0.273,0.125,0.489,0.242,0.673,0.286c0.248,0.059,0.42-0.08,0.404-0.286c-0.034-0.709-0.034-1.362,0-1.987H7.948l0.006-0.011
	C8.212,20.506,9.89,17.924,12.703,15.672"/>
<path fill="#FFFFFF" d="M63.123,24.237c-0.121,0.036-0.25,0.068-0.364,0.122h-0.023c-8.531,2.553-14.792,3.329-20.991,3.24
	c-5.514-0.083-11.019-0.786-15.921-3.229h-0.007c-0.342-0.179-0.662-0.352-0.995-0.525c-5.733-3.211-2.753-9.459,7.203-9.436
	c0.364,0.008,0.382-0.5,0.014-0.514c-6.576-0.304-9.202,1.371-11.145,3.05c-2.647,2.31-1.979,4.974,0.573,7.425h0.007
	c2.518,2.389,6.862,4.576,11.678,5.982c9.959,2.928,22.941,2.951,29.687-4.66c0.216-0.254,0.356-0.471,0.443-0.678
	c0.09-0.172,0.132-0.318,0.172-0.432c0.033-0.082,0.033-0.156,0.009-0.213C63.414,24.25,63.282,24.19,63.123,24.237"/>
<path fill="#FFFFFF" d="M36.609,33.116c-9.001-2.418-13.548-4.746-16.502-7.461c-0.465-0.43-0.888-0.853-1.268-1.285v-0.008
	c-1.876-2.207-2.568-4.643-0.584-7.587c2.914-4.333,15.851-5.872,20.586-1.755c0.268,0.236,0.62-0.11,0.388-0.365
	c-2.815-3.033-7.113-3.297-10.915-3.286C17.43,11.386,10.633,18.22,11.521,24.37c0.778,5.449,7.596,10.365,22.934,9.52
	c1.036-0.054,1.687-0.193,2.131-0.268C36.901,33.562,36.931,33.2,36.609,33.116"/>
<path fill="#FFFFFF" d="M92.109,20.1c-1.061,2.347-3.021,3.524-5.733,3.524c-3.783,0-5.372-2.045-4.526-5.839
	c0.846-3.795,3.346-5.867,7.132-5.867c2.967,0,4.379,1.442,4.069,4.127h10.088c1.064-6.205-3.39-9.696-12.912-9.696
	c-10.152,0-16.191,3.917-17.876,11.436c-1.677,7.523,2.63,11.43,12.783,11.43c9.077,0,14.921-3.156,17.16-9.115H92.109z"/>
<path fill="#FFFFFF" d="M254.906,6.349c-10.16,0-16.197,3.917-17.869,11.437c-1.676,7.523,2.625,11.43,12.778,11.43
	c10.155,0,16.194-3.906,17.863-11.43C269.354,10.266,265.059,6.349,254.906,6.349 M257.869,17.786
	c-0.843,3.794-3.354,5.839-7.131,5.839c-3.787,0-5.384-2.045-4.541-5.839c0.853-3.795,3.36-5.867,7.146-5.867
	C257.127,11.918,258.711,13.991,257.869,17.786"/>
<polygon fill="#FFFFFF" points="290.172,6.919 287.395,19.44 281.383,6.919 270.947,6.919 266.118,28.648 274.435,28.648 
	277.267,15.917 283.984,28.648 293.885,28.648 298.727,6.919 "/>
<path fill="#FFFFFF" d="M238.478,12.76c0.462-2.11-0.079-3.76-1.562-4.719c-1.266-0.844-3.699-1.122-7.295-1.122h-17.336
	l-4.842,21.729h8.961l1.474-6.619h5.263c2.176,0,2.873,0.541,2.7,2.162c-0.188,1.846-0.847,3.403-0.394,4.457h9.807l0.074-0.335
	c-0.961-0.508-0.559-2.276-0.021-5.409c0.413-2.472,0.406-3.665-1.807-4.638C236.054,17.393,237.902,15.315,238.478,12.76
	 M228.386,14.323c-0.349,1.563-1.673,1.984-4.095,1.984h-5.146l0.858-3.878h4.928C227.513,12.429,228.751,12.672,228.386,14.323"/>
<path fill="#FFFFFF" d="M211.484,6.919h-25.315l-0.698,3.108c-1.367-2.551-5.453-3.678-12.311-3.678
	c-8.896,0-13.559,2.021-14.672,6.986c-0.811,3.637,1.476,5.832,6.785,6.458l6.418,0.793c2.061,0.24,2.969,0.783,2.767,1.716
	c-0.233,1.045-1.552,1.561-3.908,1.561c-2.437,0-3.66-0.694-3.574-1.834h-10.679c-0.076,0.354-0.1,0.69-0.13,1.023h-15.82
	l0.642-2.864h12.38l1.203-5.342H142.18l0.583-2.597h15.29l1.186-5.33h-24.122l-4.838,21.729h24.868l1.064-4.711
	c0.408,3.431,4.343,5.368,11.697,5.368c10.476,0,15.992-2.284,17.211-7.725c0.791-3.584-1.231-5.664-6.092-6.354l-7.793-1.085
	c-2.205-0.3-3.254-0.561-3.035-1.526c0.188-0.844,1.424-1.451,3.51-1.451c2.749,0,4.058,0.727,3.979,2.081h10.252
	c0.028-0.285,0.06-0.555,0.06-0.816h7.171l-3.617,16.219h8.84l3.604-16.219h8.258L211.484,6.919z"/>
<path fill="#FFFFFF" d="M132.52,12.76c0.466-2.11-0.082-3.76-1.572-4.719c-1.258-0.844-3.694-1.122-7.284-1.122h-17.339
	l-4.836,21.729h8.957l1.468-6.619h5.266c2.18,0,2.875,0.541,2.7,2.162c-0.181,1.846-0.849,3.403-0.384,4.457h9.797l0.08-0.335
	c-0.959-0.508-0.565-2.276-0.029-5.409c0.424-2.472,0.406-3.665-1.802-4.638C130.094,17.393,131.956,15.315,132.52,12.76
	 M122.428,14.323c-0.343,1.563-1.669,1.984-4.096,1.984h-5.138l0.861-3.878h4.918C121.546,12.429,122.798,12.672,122.428,14.323"/>
</svg>
