<svg width="15px" height="14px" viewBox="0 0 15 14" version="1.1" xmlns="http://www.w3.org/2000/svg"
     xmlns:xlink="http://www.w3.org/1999/xlink">
  <!-- Generator: Sketch 49 (51002) - http://www.bohemiancoding.com/sketch -->
  <title>购物车</title>
  <desc>Created with Sketch.</desc>
  <defs></defs>
  <g id="切图" stroke="none" stroke-width="1" fill="none" fill-rule="evenodd">
    <g id="Artboard" transform="translate(-281.000000, -206.000000)">
      <g id="common_shopping" transform="translate(280.000000, 204.000000)">
        <rect id="Rectangle" x="0" y="0" width="17" height="17"></rect>
        <g id="购物车" transform="translate(1.000000, 2.000000)" fill="#FFFFFF" fill-rule="nonzero">
          <path
            d="M3.29149741,1.6159867 L15,1.6159867 L13.6076368,8.36277531 L4.67199457,8.36277531 L4.8947922,9.45163559 L13.8128236,9.45163559 L13.8128236,10.4154625 L4.09400584,10.4154625 L2.16005522,0.963826943 L0,0.963826943 L0,-7.10542736e-15 L2.96084158,-7.10542736e-15 L3.29149741,1.6159867 Z M5.49696265,13.2817988 C4.82157323,13.2817988 4.27406193,12.7423988 4.27406193,12.0770151 C4.27406193,11.4116315 4.82157323,10.8722315 5.49696265,10.8722315 C6.17235207,10.8722315 6.71986338,11.4116315 6.71986338,12.0770151 C6.71986338,12.7423988 6.17235207,13.2817988 5.49696265,13.2817988 Z M12.5466748,13.2817988 C11.8712854,13.2817988 11.3237741,12.7423988 11.3237741,12.0770151 C11.3237741,11.4116315 11.8712854,10.8722315 12.5466748,10.8722315 C13.2220643,10.8722315 13.7695756,11.4116315 13.7695756,12.0770151 C13.7695756,12.7423988 13.2220643,13.2817988 12.5466748,13.2817988 Z"
            id="Combined-Shape"></path>
        </g>
      </g>
    </g>
  </g>
</svg>
