<?xml version="1.0" encoding="UTF-8"?>
<svg width="20px" height="13px" viewBox="0 0 20 13" version="1.1" xmlns="http://www.w3.org/2000/svg" xmlns:xlink="http://www.w3.org/1999/xlink">
    <!-- Generator: Sketch 49 (51002) - http://www.bohemiancoding.com/sketch -->
    <title>common_cn</title>
    <desc>Created with Sketch.</desc>
    <defs>
        <path d="M1,0 L19,0 C19.5522847,-1.01453063e-16 20,0.44771525 20,1 L20,12 C20,12.5522847 19.5522847,13 19,13 L1,13 C0.44771525,13 6.76353751e-17,12.5522847 0,12 L0,1 C-6.76353751e-17,0.44771525 0.44771525,1.01453063e-16 1,0 Z" id="path-1"></path>
    </defs>
    <g id="切图" stroke="none" stroke-width="1" fill="none" fill-rule="evenodd">
        <g id="Artboard" transform="translate(-363.000000, -206.000000)">
            <g id="common_cn" transform="translate(363.000000, 204.000000)">
                <polygon id="Rectangle-Copy-3" points="0 0 20 0 20 17 0 17"></polygon>
                <g id="cn" transform="translate(0.000000, 2.000000)">
                    <mask id="mask-2" fill="white">
                        <use xlink:href="#path-1"></use>
                    </mask>
                    <use id="Mask" fill="#303137" xlink:href="#path-1"></use>
                    <g id="China" mask="url(#mask-2)">
                        <g transform="translate(-1.000000, -1.000000)">
                            <polygon id="Fill-2" fill="#E50100" points="0.898071289 14.0821533 21.0240479 14.0821533 21.0240479 0.888305664 0.898071289 0.888305664"></polygon>
                            <path d="M8.38009053,7.60952073 L8.3462222,8.06712216 L8.7868642,8.23659856 L8.32924593,8.35528088 L8.29536075,8.81289915 L8.05806348,8.42303438 L7.60044521,8.5417167 L7.90551283,8.18573711 L7.65130666,7.79595656 L8.09194866,7.96541611 L8.38009053,7.60952073 Z M9.48176289,6.18575396 L9.63433039,6.62646332 L10.0919487,6.62646332 L9.71906016,6.89762892 L9.85465139,7.33833829 L9.48176289,7.06715585 L9.10889124,7.33833829 L9.26144189,6.89762892 L8.88857024,6.62646332 L9.34618851,6.62646332 L9.48176289,6.18575396 Z M9.95635743,4.3213957 L9.7530127,4.72816937 L10.0750398,5.05019642 L9.61742148,4.9823587 L9.41400939,5.38919973 L9.34618851,4.9315141 L8.88857024,4.86374375 L9.29532707,4.66033165 L9.22757356,4.20271338 L9.54960061,4.52475727 L9.95635743,4.3213957 Z M8.38009053,2.81289915 L8.3631311,3.28749369 L8.7868642,3.45695324 L8.32924593,3.57563556 L8.31233702,4.03325383 L8.05806348,3.64340591 L7.61742148,3.74511196 L7.90551283,3.38919973 L7.66821556,2.99933497 L8.09194866,3.18578764 L8.38009053,2.81289915 Z M4.71909385,3.52479096 L5.15973585,4.86374375 L6.5665432,4.86374375 L5.43098566,5.67727424 L5.85465139,7.01631124 L4.71909385,6.18575396 L3.58348578,7.01631124 L4.02419515,5.67727424 L2.88857024,4.86374375 L4.29536075,4.86374375 L4.71909385,3.52479096 Z" id="Fill-3" fill="#FBDC00"></path>
                        </g>
                    </g>
                </g>
            </g>
        </g>
    </g>
</svg>