<?xml version="1.0" encoding="UTF-8"?>
<svg width="54px" height="70px" viewBox="0 0 54 70" version="1.1" xmlns="http://www.w3.org/2000/svg" xmlns:xlink="http://www.w3.org/1999/xlink">
    <!-- Generator: Sketch 50 (54983) - http://www.bohemiancoding.com/sketch -->
    <title>electric charge</title>
    <desc>Created with Sketch.</desc>
    <defs></defs>
    <g id="1.2增强版" stroke="none" stroke-width="1" fill="none" fill-rule="evenodd">
        <path d="M5.64027653,38.5221227 L25.3604788,38.5221227 C25.9253997,38.5221227 26.4549039,38.7968387 26.7832751,39.2595415 C27.1116464,39.7222443 27.1982209,40.3157013 27.0150151,40.8536869 L20.0715591,61.2645589 L48.1497061,31.794662 L32.0284702,31.794662 C31.5247636,31.794662 31.04598,31.5762979 30.7136735,31.1946012 C30.381367,30.8137849 30.2283312,30.3070571 30.2943552,29.8042916 L33.2374536,7.22166617 L5.64027653,38.5221227 Z M15.8495181,70 C15.5368876,70 15.222071,69.9159122 14.9400477,69.742894 C14.2391435,69.3127697 13.9295738,68.4498796 14.1954189,67.6684358 L22.9123421,42.044123 L1.74923022,42.044123 C1.06056881,42.044123 0.436182456,41.6373319 0.153721964,41.0051329 C-0.128301283,40.3724936 -0.0163664747,39.6324333 0.440992154,39.114259 L34.4053359,0.592381189 C34.9156012,0.0134523964 35.7411205,-0.162207366 36.4394013,0.159175157 C37.1385566,0.48055768 37.547381,1.22325948 37.4472518,1.99061529 L34.0218718,28.2726617 L52.2510674,28.2726617 C52.9515344,28.2726617 53.5846657,28.693981 53.859693,29.3424693 C54.1347203,29.9918381 53.9982998,30.7433449 53.5129574,31.2527142 L17.1122826,69.4584925 C16.7729802,69.8142145 16.3134354,70 15.8495181,70 Z" id="electric-charge" fill="#303137"></path>
    </g>
</svg>