<?xml version="1.0" encoding="UTF-8"?>
<svg width="24px" height="22px" viewBox="0 0 24 22" version="1.1" xmlns="http://www.w3.org/2000/svg" xmlns:xlink="http://www.w3.org/1999/xlink">
    <!-- Generator: Sketch 50 (54983) - http://www.bohemiancoding.com/sketch -->
    <title>WeChat pay</title>
    <desc>Created with Sketch.</desc>
    <defs></defs>
    <g id="1.2增强版" stroke="none" stroke-width="1" fill="none" fill-rule="evenodd">
        <path d="M8.73035249,13.3865873 C8.62760873,13.4550441 8.49069506,13.489331 8.35381065,13.489331 C8.04560863,13.489331 7.80595121,13.3181305 7.6690668,13.0785023 L7.60060997,12.9757585 L5.40943549,8.18261006 C5.37514856,8.11418249 5.37514856,8.07989556 5.37514856,8.01143873 C5.37514856,7.80595121 5.54634915,7.60060997 5.78597732,7.60060997 C5.88872108,7.60060997 5.95717791,7.63477987 6.02563474,7.6690668 L8.59343882,9.5178401 C8.76463941,9.65475376 9.00426758,9.72329836 9.243925,9.72329836 C9.38092643,9.72329836 9.5178401,9.68904069 9.65475376,9.65475376 L21.7745678,4.24528902 C19.5833934,1.67760196 16.0228482,0 11.9829297,0 C5.37514856,0 2.34479103e-13,4.48506347 2.34479103e-13,9.99712569 C2.34479103e-13,13.0099284 1.60914513,15.7147632 4.14266228,17.5292496 C4.34803278,17.6661632 4.48506347,17.9058207 4.48506347,18.1797358 C4.48506347,18.2824795 4.45077654,18.3509363 4.45077654,18.4193639 C4.24528902,19.1725939 3.93720402,20.370881 3.90303412,20.4393378 C3.86874719,20.5420816 3.83446026,20.6448253 3.83446026,20.7475398 C3.83446026,20.9529103 4.00566085,21.1583686 4.24528902,21.1583686 C4.34803278,21.1583686 4.41660663,21.1241109 4.48506347,21.0897947 L7.12120736,19.5834226 C7.32666562,19.4807666 7.53215314,19.412222 7.7717813,19.412222 C7.90869497,19.412222 8.01143873,19.446509 8.11415323,19.4807666 C9.34663951,19.8230508 10.6476996,20.0285091 12.0170996,20.0285091 C18.6248514,20.0285091 24,15.5434748 24,10.0314126 C24,8.35381065 23.5207144,6.77895245 22.6305123,5.40943549 L8.73035249,13.3865873 Z" id="WeChat-pay" fill="#27C15A"></path>
    </g>
</svg>